<?xml version="1.0" encoding="utf-8"?>
<!-- Generator: Adobe Illustrator 17.0.0, SVG Export Plug-In . SVG Version: 6.00 Build 0)  -->
<!DOCTYPE svg PUBLIC "-//W3C//DTD SVG 1.1//EN" "http://www.w3.org/Graphics/SVG/1.1/DTD/svg11.dtd">
<svg version="1.1" id="Layer_1" xmlns="http://www.w3.org/2000/svg" xmlns:xlink="http://www.w3.org/1999/xlink" x="0px" y="0px"
	 width="113.833px" height="121px" viewBox="0 0 113.833 121" enable-background="new 0 0 113.833 121" xml:space="preserve">
<g>
	<path fill="#102D69" d="M46.563,16.589c0.37-4.219-1.691-12.572-1.691-12.572c19.836,10.52,28.256,22.248,31.973,29.435
		c5.364,10.372,6.287,19.332,3.816,24.948c-4.354,9.027-15.419,12.155-15.419,12.155c11.477-8.174,25.173-27.957-1.636-48.831
		c-10.223-7.959-15.921-10.799-15.921-10.799C48.129,13.821,47.789,15.658,46.563,16.589"/>
	<path fill="#102D69" d="M69.332,61.436c1.589-1.849,3.396-4.583,3.701-6.54c0,0,2.235,1.182,3.855-1.109
		c1.621-2.292,0.918-7.206,0.182-10.308c-0.734-3.104-1.315-5.469-3.334-7.87c-2.02-2.401-8.074-9.348-8.32-9.791
		c0,0,0.52,5.764,0.765,6.135c0.245,0.369,7.892,8.608,8.992,10.381c1.101,1.775,1.653,6.874-1.896,7.612
		c0,0-0.307-6.132-2.417-9.68c-2.109-3.547-3.7-4.361-5.841-5.21c0,0-0.733,5.543,1.07,10.9c1.804,5.358,4.099,7.352,4.099,7.352
		s-2.263,8.978-13.122,13.854C57.067,67.161,63.276,68.456,69.332,61.436 M68.23,47.063c-1.411-2.696-1.192-6.318-1.192-6.318
		c2.355,1.073,3.639,2.883,4.128,4.435c0.491,1.552,0.094,4.285,0.094,4.285S69.18,48.873,68.23,47.063"/>
	<path fill="#102D69" d="M61.103,60.992c0.215-2.918,3.733-7.426,4.039-8.127c0.306-0.702-0.949-5.432-0.949-5.432
		c0.183,1.036-3.823,4.952-4.375,7.464C59.268,57.409,61.103,60.992,61.103,60.992"/>
	<path fill="#102D69" d="M53.087,88.065c2.327-5.098,2.013-9.809,2.327-13.41c0.39-4.498,0.146-11.408,1.254-11.673
		c0.571-0.135,1.561,2.328,1.652,2.18c0.093-0.149,0.305-2.328,0.337-2.808c0,0-1.285-3.511-2.021-4.323
		c-0.734-0.812-1.867,0-2.358,4.102c-0.489,4.1-0.611,14.293-2.904,20.465c-2.281,6.132-6.196,9.707-12.852,10.186
		c-0.064,0.028-0.126,0.061-0.194,0.087c-0.125,0.231,0.26,0.787,2.308,0.886C42.961,93.865,49.94,94.964,53.087,88.065"/>
	<path fill="#102D69" d="M83.18,62.285c0,0-4.761,7.474-9.168,6.698c0,0,0.061,5.171,0.46,5.538c0.398,0.37,2.662-0.11,2.662-0.11
		s-0.938,5.714-1.825,6.38c-0.886,0.665-2.504-0.66-3.743-6.536c-0.398-1.292-1.04-4.506-1.988-4.358
		c-0.948,0.148-0.797,3.953-0.856,7.498c-0.061,3.547,0.275,7.795-1.071,10.603c-1.346,2.808-3.611,2.104-4.619,0.886
		c0,0,1.835-3.51,1.59-9.606c-0.244-6.094-1.499-9.714-4.099-12.116c0,0-1.467,3.547-2.08,7.129
		c-0.612,3.582-0.428,9.309,1.132,13.447c0,0-3.487,5.358-13.647,6.834c0,0,4.581,2.271,9.631,0.755
		c5.046-1.514,5.728-3.526,5.728-3.526s2.386,4.175,5.017,3.694c2.63-0.479,3.535-4.384,3.915-8.201
		c0.398-3.991-0.215-10.198,0.489-10.344c0.705-0.148,1.923,10.368,4.601,9.75c1.928-0.443,3.139-7.71,3.506-9.668
		c0.367-1.957,2.266-7.223,4.071-8.701C82.886,68.333,83.727,65.448,83.18,62.285 M60.676,86.112
		c-1.989-5.801,0.671-12.153,0.671-12.153s2.356,2.731,2.081,5.762C63.069,83.669,60.676,86.112,60.676,86.112"/>
	<path fill="#102D69" d="M39.385,91.326c0.038-0.003,0.077-0.009,0.118-0.01c1.472-0.64,2.451-2.333,2.909-4.461
		c0.764-3.545,0.122-8.681,0.122-8.681c0.491-0.036,1.897-2.142,1.897-2.142c0.612,0.812,2.418-0.924,3.273-2.584
		c0.856-1.662,1.469-4.064,1.101-7.611c-0.368-3.546-1.132-3.176-1.132-3.176c0.183,0.554,0.092,2.66-0.092,3.694
		c-0.458,2.512-3.028,4.137-3.028,4.137c0.152-1.182-0.458-4.691-0.581-4.913c-0.123-0.223-0.52-0.482-0.461,2.548
		c0.063,3.029-0.579,4.766-2.383,4.84c-1.807,0.074-5.172-4.767-5.172-4.767l0.398,5.726c3.916,3.694,4.865,7.055,4.865,7.055
		c-0.061,1.625-0.552,4.361-3.152,5.283c-2.6,0.923-6.547-3.658-7.587-6.096c-2.783-7.793-0.855-12.928,2.326-19.43
		c3.181-6.504,4.807-12.82,4.685-16.078c-0.52,3.436-7.348,17.591-8.204,19.807c-0.856,2.218-2.232,7.833-1.344,13.632
		c0.886,5.801,4.404,11.121,7.953,12.894c1.327,0.663,2.466,0.746,3.41,0.407C39.326,91.369,39.351,91.343,39.385,91.326"/>
	<path fill="#102D69" d="M34.257,63.361c1.493-1.863,2.748-1.918,2.748-1.918c-0.14,1.145-3.625,5.756-3.625,5.756
		c0.711-0.402,2.94-2.293,3.603-3.439c0.665-1.145,1.424-3.493,1.826-5.126c0.403-1.633,0.071-1.833-0.688-1.489
		c-0.758,0.343-3.011,2.318-3.011,2.318C34.896,59.952,34.257,63.361,34.257,63.361"/>
	<path fill="#102D69" d="M47.122,59.81c2.018-0.703,3.793-3.658,3.121-9.089c-0.673-5.43-2.326-10.159-4.926-10.678
		c-2.601-0.518-5.413,1.775-3.182,8.35c0,0,0.643-3.732,3.335-2.918c2.692,0.812,3.244,3.361,3.244,3.361s0.366,4.951-3.213,5.69
		c-3.578,0.739-5.505-1.44-5.812-4.692c-0.305-3.252,0.857-7.206,2.234-11.971c1.376-4.766,4.46-12.159,3.701-15.592
		c0,0-1.143,5.136-3.013,9.415c-1.284,2.94-5.215,10.388-4.879,15.56C38.068,52.421,40.24,61.806,47.122,59.81"/>
	<path fill="#102D69" d="M46.45,16.619l-0.763,5.394l4.038,1.663c0,0,1.161-4.914,0.917-5.579
		C50.397,17.432,46.45,16.619,46.45,16.619"/>
	<path fill="#102D69" d="M52.769,30.133c-0.537-2.196-1.117-3.877-4.168-5.148l0.326,3.046c0,0,2.741,0.241,3.517,3.662
		c0.776,3.418-0.545,6.954-0.545,6.954S54.002,35.557,52.769,30.133"/>
	<path fill="#102D69" d="M59.237,51.534c2.877-1.073,2.846-7.833,2.877-10.678c0.03-2.845-0.858-5.875-1.591-5.985
		c-0.336,0-0.398,1.662-1.039,2.771c-0.643,1.109-1.438,1.589-2.325,0.959c0,0-0.582-3.546,0.489-5.836
		c1.071-2.291,2.631-3.178,3.609-1.995c0.309,0.518,0.734,2.107,1.255,1.848c0,0,0.458-0.629-0.123-3.289
		c-0.58-2.661-1.835-4.729-3.181-4.47c-1.344,0.258-3.854,1.735-3.946,8.793c-0.092,7.057,1.653,11.121,2.907,12.192
		c0,0-1.563,1.552-4.531-1.552c-2.967-3.104-5.629-13.707-7.158-15.369c0,0-0.398,1.957-0.061,3.916c0,0,1.712,5.505,4.221,10.862
		C53.148,49.058,56.362,52.606,59.237,51.534"/>
	<path fill="#102D69" d="M50.831,75.049c-0.616,0.266-0.966-1.006-1.099-0.899c-0.13,0.105-0.088,1.907-0.241,2.677
		c-0.154,0.77-0.638,0.213-1.01,0.027c-0.375-0.185-0.747,0.213-0.836,1.592c-0.087,1.382-0.767,3.157-1.536,5.226
		c-0.769,2.07-3.405,5.014-3.405,5.014s2.79-1.723,3.47-2.519c0.682-0.797,1.385-2.282,1.69-4.191
		c0.309-1.91,0.396-3.025,0.571-3.079c0.176-0.053,0.755,0.378,1.032,0.293c0.506-0.159,0.858-2.229,0.858-2.229
		c0.571,0.398,1.163-0.185,1.404-1.512c0.243-1.326-0.307-3.022-0.307-3.022C50.809,72.08,51.447,74.785,50.831,75.049"/>
	<polygon fill="#E20613" points="108.694,114.136 3.885,114.136 13.28,101.795 99.3,101.795 	"/>
	<path fill="#FFFFFF" d="M11.981,110.315c0.051-0.009,0.092-0.041,0.122-0.094c0.03-0.053,0.059-0.114,0.087-0.182l1.107-2.838
		c0.028-0.065,0.054-0.123,0.075-0.177c0.021-0.053,0.032-0.099,0.032-0.139c0-0.048-0.012-0.081-0.041-0.102
		c-0.029-0.019-0.058-0.034-0.09-0.043v-0.131h1.011v0.131c-0.028,0.009-0.056,0.024-0.084,0.04
		c-0.027,0.017-0.042,0.052-0.042,0.105c0,0.04,0.006,0.078,0.021,0.118c0.013,0.038,0.035,0.09,0.063,0.154l1.244,2.969
		c0.019,0.053,0.046,0.093,0.079,0.118c0.035,0.025,0.074,0.048,0.118,0.072v0.132h-1.053v-0.133c0.016,0,0.035-0.006,0.06-0.021
		c0.025-0.015,0.037-0.037,0.037-0.066c0-0.05-0.017-0.114-0.048-0.192l-0.228-0.545h-1.459l-0.216,0.523
		c-0.04,0.105-0.061,0.177-0.061,0.221c0,0.054,0.038,0.08,0.114,0.08v0.133H11.98L11.981,110.315L11.981,110.315z M14.235,108.954
		l-0.502-1.357l-0.562,1.357H14.235z"/>
	<path fill="#FFFFFF" d="M14.283,106.419h-1.201v0.437c0,0,0.098,0.046,0.123,0.058c-0.005,0.019-0.01,0.038-0.01,0.038
		c-0.001,0.002-0.048,0.112-0.048,0.112l-0.027,0.062c-0.002,0.006-1.109,2.844-1.109,2.844c0.001-0.003-0.076,0.158-0.076,0.158
		l-0.102,0.053l-0.045,0.133v0.321h1.227v-0.502c0,0-0.042-0.001-0.081-0.004c0.009-0.027,0.016-0.05,0.016-0.05
		s0.102-0.248,0.165-0.401h1.207c0.06,0.144,0.179,0.428,0.179,0.428s0.006,0.022,0.01,0.038c-0.016,0.003-0.04,0.006-0.04,0.006
		l-0.032,0.162v0.322h1.432v-0.427l-0.196-0.12c0,0.001,0,0,0,0c0-0.003-0.012-0.026-0.012-0.026
		c-0.004-0.01-1.249-2.979-1.249-2.979c-0.001-0.002-0.059-0.143-0.059-0.143c0-0.001-0.003-0.014-0.005-0.025
		c0.019-0.009,0.094-0.046,0.094-0.046l0.027-0.128v-0.321L14.283,106.419L14.283,106.419z M13.991,106.798
		c-0.008,0.029-0.023,0.049-0.023,0.087l0.032,0.182l0.068,0.165c-0.001-0.003,1.243,2.966,1.243,2.966
		c-0.001-0.004,0.019,0.025,0.045,0.059h-0.448c0.001-0.011,0.008-0.019,0.008-0.03l-0.062-0.263
		c-0.001-0.002-0.277-0.663-0.277-0.663h-1.712l-0.264,0.639c-0.002,0.006-0.074,0.293-0.074,0.293c0,0.009,0.004,0.016,0.004,0.024
		h-0.236c0.029-0.06,0.071-0.147,0.071-0.147c0.001-0.004,1.107-2.842,1.107-2.842c-0.002,0.005,0.023-0.054,0.023-0.054
		l0.052-0.123l0,0c0-0.001,0.045-0.208,0.045-0.208c0-0.037-0.013-0.059-0.021-0.087L13.991,106.798L13.991,106.798z"/>
	<path fill="#FFFFFF" d="M13.558,107.525l-0.67,1.618h1.619l-0.764-2.064L13.558,107.525z M13.723,108.115
		c0.107,0.289,0.167,0.452,0.24,0.65h-0.51C13.537,108.563,13.604,108.402,13.723,108.115"/>
	<path fill="#FFFFFF" d="M20.306,110.463c-0.038-0.01-0.087-0.016-0.146-0.016h-2.854v-0.132c0.12,0,0.18-0.043,0.18-0.13v-3.315
		c0-0.088-0.061-0.131-0.18-0.131v-0.131h1.035v0.131c-0.112,0-0.168,0.043-0.168,0.131v2.909h1.987c0.06,0,0.108-0.017,0.146-0.052
		c0.037-0.033,0.057-0.079,0.057-0.137h0.107v1.001h-0.107C20.363,110.516,20.343,110.472,20.306,110.463"/>
	<path fill="#FFFFFF" d="M18.341,106.419h-1.225v0.493c0,0,0.165,0.014,0.18,0.016v3.199c-0.016,0.001-0.164,0.014-0.164,0.014
		l-0.017,0.174v0.321h3.043c0,0,0.012,0.001,0.017,0.001c0.003,0.052,0.007,0.11,0.007,0.11l0.179,0.033h0.296v-1.379h-0.472
		l-0.014,0.195c0,0-1.501-0.005-1.812-0.006v-2.664c0.032-0.003,0.153-0.012,0.153-0.012l0.015-0.175v-0.321L18.341,106.419
		L18.341,106.419z M17.996,106.798c-0.005,0.025-0.012,0.049-0.012,0.074v3.098h2.176c0.044,0,0.083-0.009,0.121-0.02v0.324
		c-0.058-0.006-0.121-0.014-0.121-0.014h-2.496c0.006-0.025,0.013-0.049,0.013-0.073v-3.315c0-0.024-0.007-0.048-0.013-0.074H17.996
		z M20.35,110.279c0.002,0.001,0.006,0.001,0.006,0.001h-0.003L20.35,110.279"/>
	<rect x="21.952" y="108.535" fill="#FFFFFF" width="1.418" height="0.616"/>
	<path fill="#FFFFFF" d="M23.371,108.346h-1.607v0.994h1.796v-0.994H23.371z M23.182,108.962h-1.039v-0.238h1.039V108.962z"/>
	<path fill="#FFFFFF" d="M25.23,110.316c0.104,0,0.155-0.043,0.155-0.13v-3.315c0-0.088-0.051-0.131-0.155-0.131v-0.131h0.998v0.131
		c-0.105,0-0.155,0.043-0.155,0.131v3.315c0,0.087,0.051,0.13,0.155,0.13v0.132H25.23V110.316z"/>
	<path fill="#FFFFFF" d="M26.228,106.419h-1.187v0.497c0,0,0.109,0.007,0.155,0.01c0,0.109,0,3.094,0,3.202
		c-0.052,0.004-0.124,0.009-0.124,0.009l-0.032,0.178v0.321h1.376v-0.497c0,0-0.109-0.008-0.155-0.011v-3.202
		c0.052-0.003,0.125-0.009,0.125-0.009l0.031-0.178v-0.321C26.417,106.419,26.228,106.419,26.228,106.419z M25.897,106.798
		c-0.005,0.025-0.014,0.047-0.014,0.074v3.314c0,0.024,0.006,0.048,0.012,0.073h-0.333c0.005-0.025,0.012-0.049,0.012-0.073v-3.314
		c0-0.027-0.009-0.049-0.014-0.074H25.897z"/>
	<path fill="#FFFFFF" d="M28.341,110.316c0.032,0,0.061-0.01,0.084-0.032c0.024-0.022,0.035-0.055,0.035-0.098v-3.33
		c0-0.043-0.012-0.073-0.035-0.091c-0.024-0.017-0.053-0.025-0.084-0.025v-0.131h1.119v0.131c-0.019,0-0.041,0.007-0.062,0.022
		c-0.022,0.014-0.032,0.035-0.032,0.066c0,0.023,0.006,0.056,0.023,0.094c0.016,0.037,0.033,0.08,0.054,0.124l0.856,1.896
		l0.863-1.875c0.028-0.064,0.049-0.113,0.063-0.15c0.014-0.036,0.021-0.069,0.021-0.099c0-0.053-0.026-0.079-0.077-0.079v-0.131
		h1.108v0.131c-0.032,0-0.061,0.007-0.085,0.025c-0.023,0.018-0.035,0.048-0.035,0.091v3.33c0,0.043,0.012,0.076,0.035,0.098
		c0.024,0.022,0.053,0.032,0.085,0.032v0.132h-0.937v-0.132c0.107,0,0.161-0.043,0.161-0.13v-2.424h-0.011l-1.207,2.686h-0.019
		l-1.177-2.693h-0.012v2.432c0,0.087,0.055,0.13,0.167,0.13v0.132h-0.899C28.341,110.448,28.341,110.316,28.341,110.316z"/>
	<path fill="#FFFFFF" d="M32.275,106.419h-1.297v0.51h0.036c-0.014,0.033-0.027,0.064-0.027,0.064
		c0.001-0.003-0.436,0.947-0.688,1.494c-0.218-0.484-0.685-1.518-0.685-1.518c-0.001-0.001-0.016-0.037-0.03-0.069
		c0.005-0.001,0.02-0.004,0.02-0.004l0.043-0.155v-0.321h-1.497v0.448c0,0,0.064,0.021,0.12,0.039c0,0.1,0,3.187,0,3.248
		c-0.024,0.009-0.049,0.019-0.049,0.019l-0.071,0.141v0.321h1.277v-0.496c0,0-0.133-0.01-0.167-0.013v-1.496
		c0.346,0.792,0.998,2.282,0.998,2.282l0.194-0.389c0,0,0.503-1.12,0.856-1.905v1.509c-0.05,0.004-0.125,0.009-0.125,0.009
		l-0.036,0.177v0.321h1.315v-0.447c0,0-0.065-0.022-0.12-0.04v-3.249c0.022-0.009,0.047-0.019,0.047-0.019l0.074-0.141v-0.321
		h-0.189V106.419z M31.98,106.798c-0.004,0.021-0.014,0.034-0.014,0.058v3.329c0,0,0.017,0.042,0.029,0.073h-0.318
		c0.005-0.025,0.012-0.049,0.012-0.073v-2.424l-0.372-0.078c0,0-0.796,1.771-1.042,2.319c-0.241-0.55-1.016-2.324-1.016-2.324
		l-0.374,0.076v2.431c0,0.024,0.006,0.048,0.012,0.073h-0.276c0.016-0.039,0.03-0.073,0.03-0.073v-3.329
		c0-0.025-0.01-0.037-0.014-0.058h0.549c-0.001,0.012-0.009,0.017-0.009,0.031l0.037,0.167c0.002,0.005,0.058,0.132,0.058,0.132
		c-0.001-0.003,0.854,1.893,0.854,1.893l0.17,0.378l1.036-2.251c0.002-0.004,0.068-0.162,0.068-0.162
		c0-0.002,0.033-0.167,0.033-0.167c0-0.009-0.008-0.013-0.008-0.022H31.98z M29.501,106.92c0,0,0,0.001-0.001,0.001
		c0-0.001-0.041,0.008-0.041,0.008S29.484,106.924,29.501,106.92"/>
	<path fill="#FFFFFF" d="M34.008,110.315c0.052-0.009,0.094-0.041,0.123-0.094c0.031-0.053,0.06-0.114,0.087-0.182l1.107-2.838
		c0.027-0.065,0.053-0.123,0.075-0.177c0.021-0.053,0.032-0.099,0.032-0.139c0-0.048-0.014-0.081-0.042-0.102
		c-0.028-0.019-0.058-0.034-0.09-0.043v-0.131h1.011v0.131c-0.027,0.009-0.056,0.024-0.084,0.04
		c-0.027,0.017-0.042,0.052-0.042,0.105c0,0.04,0.006,0.078,0.021,0.118c0.014,0.038,0.035,0.09,0.063,0.154l1.244,2.969
		c0.02,0.053,0.048,0.093,0.081,0.118c0.035,0.025,0.073,0.048,0.118,0.072v0.132h-1.053v-0.133c0.016,0,0.035-0.006,0.059-0.021
		c0.025-0.015,0.037-0.037,0.037-0.066c0-0.05-0.016-0.114-0.047-0.192l-0.229-0.545h-1.459l-0.213,0.523
		c-0.043,0.105-0.062,0.177-0.062,0.221c0,0.054,0.038,0.08,0.115,0.08v0.133h-0.851C34.008,110.448,34.008,110.315,34.008,110.315z
		 M36.264,108.954l-0.502-1.357l-0.562,1.357H36.264z"/>
	<path fill="#FFFFFF" d="M36.311,106.419h-1.2v0.437c0,0,0.097,0.047,0.123,0.059c-0.005,0.019-0.01,0.039-0.01,0.039l-0.074,0.174
		c-0.001,0.004-1.109,2.842-1.109,2.842c0.001-0.002-0.074,0.156-0.074,0.156l-0.097,0.054l-0.051,0.136v0.321h1.229v-0.502
		c0,0-0.042-0.002-0.081-0.004c0.008-0.025,0.014-0.045,0.014-0.045s0.103-0.252,0.166-0.406h1.207
		c0.061,0.143,0.179,0.429,0.179,0.429s0.006,0.022,0.01,0.037c-0.016,0.003-0.041,0.007-0.041,0.007l-0.032,0.161v0.322h1.432
		v-0.427l-0.196-0.12c0.004,0.003-0.014-0.03-0.014-0.03c-0.003-0.006-1.246-2.976-1.246-2.976
		c-0.001-0.004-0.061-0.146-0.061-0.146l0,0c0-0.001-0.001-0.012-0.004-0.022c0.017-0.009,0.094-0.047,0.094-0.047l0.026-0.128
		v-0.321L36.311,106.419L36.311,106.419z M36.019,106.798c-0.008,0.029-0.023,0.05-0.023,0.087l0.032,0.179
		c0.001,0.004,0.069,0.169,0.069,0.169c-0.001-0.004,1.242,2.965,1.242,2.965c-0.001-0.002,0.019,0.026,0.043,0.059h-0.447
		c0.001-0.011,0.008-0.019,0.008-0.03l-0.061-0.263c-0.001-0.003-0.279-0.664-0.279-0.664h-1.712l-0.262,0.64
		c-0.052,0.127-0.076,0.22-0.076,0.293c0,0.008,0.004,0.016,0.004,0.024H34.32c0.028-0.06,0.071-0.148,0.071-0.148
		c0.001-0.003,1.108-2.841,1.108-2.841c-0.001,0.004,0.036-0.085,0.036-0.085l0.037-0.089c0.001-0.001,0.046-0.21,0.046-0.21
		c0-0.037-0.014-0.058-0.022-0.087h0.422V106.798z"/>
	<path fill="#FFFFFF" d="M35.586,107.525l-0.67,1.618h1.619l-0.764-2.064L35.586,107.525z M35.751,108.115
		c0.107,0.289,0.167,0.452,0.241,0.65h-0.51C35.566,108.563,35.632,108.402,35.751,108.115"/>
	<path fill="#FFFFFF" d="M39.497,110.316c0.076,0,0.115-0.043,0.115-0.13v-3.315c0-0.088-0.039-0.131-0.115-0.131v-0.131h1.021
		v0.131c-0.032,0-0.047,0.024-0.047,0.072c0,0.039,0.04,0.107,0.12,0.205l1.714,2.174v-2.32c0-0.088-0.052-0.131-0.156-0.131v-0.131
		h0.903v0.131c-0.075,0-0.113,0.043-0.113,0.131v3.315c0,0.087,0.038,0.13,0.113,0.13v0.132h-0.969v-0.132
		c0.053,0,0.079-0.022,0.079-0.065c0-0.033-0.032-0.09-0.096-0.167l-1.824-2.322v2.424c0,0.087,0.048,0.13,0.138,0.13v0.132h-0.885
		V110.316z"/>
	<path fill="#FFFFFF" d="M43.053,106.419h-1.092v0.497c0,0,0.111,0.008,0.156,0.01v1.719c-0.436-0.552-1.377-1.746-1.377-1.746
		c-0.001-0.001-0.016-0.022-0.032-0.045v-0.435h-1.4v0.506c0,0,0.06,0.001,0.114,0.002c0,0.121,0,3.093,0,3.201
		c-0.053,0.001-0.109,0.003-0.109,0.003l-0.005,0.185v0.321h1.263v-0.5c0,0-0.084-0.004-0.138-0.007v-1.821
		c0.442,0.562,1.428,1.818,1.463,1.863c0,0.052-0.001,0.144-0.001,0.144v0.321h1.347v-0.507c0,0-0.058-0.001-0.112-0.002
		c0-0.123,0-3.092,0-3.2c0.053-0.001,0.11-0.002,0.11-0.002l0.003-0.186v-0.321L43.053,106.419L43.053,106.419z M42.763,106.798
		c-0.005,0.025-0.012,0.047-0.012,0.074v3.314c0,0.027,0.007,0.048,0.012,0.073H42.35c0-0.003,0.003-0.004,0.003-0.008
		c0-0.084-0.042-0.17-0.139-0.288c0.003,0.004-1.821-2.318-1.821-2.318l-0.338-0.43v2.971c0,0.027,0.008,0.048,0.013,0.073h-0.279
		c0.004-0.025,0.012-0.046,0.012-0.073v-3.314c0-0.027-0.008-0.049-0.013-0.074h0.497c0,0.006-0.003,0.009-0.003,0.015
		c0,0.089,0.047,0.183,0.163,0.324c-0.002-0.003,1.712,2.171,1.712,2.171l0.337,0.428v-2.865c0-0.027-0.009-0.049-0.014-0.074
		L42.763,106.798L42.763,106.798z"/>
	<path fill="#FFFFFF" d="M67.718,109.25l0.055,0.037c0,0.045,0.007,0.084,0.022,0.118c0.024,0.058,0.075,0.115,0.146,0.172
		c0.075,0.056,0.158,0.106,0.253,0.148c0.094,0.045,0.194,0.08,0.298,0.105c0.104,0.027,0.195,0.041,0.278,0.041
		c0.061,0,0.138-0.006,0.236-0.019c0.097-0.012,0.191-0.037,0.284-0.076c0.092-0.039,0.173-0.093,0.242-0.16
		c0.066-0.069,0.1-0.159,0.1-0.271c0-0.112-0.031-0.195-0.094-0.249c-0.062-0.053-0.144-0.092-0.247-0.117
		c-0.102-0.025-0.218-0.04-0.349-0.048c-0.13-0.007-0.265-0.017-0.399-0.031c-0.136-0.016-0.27-0.041-0.399-0.074
		c-0.131-0.035-0.248-0.091-0.35-0.173c-0.101-0.079-0.183-0.189-0.246-0.328c-0.063-0.138-0.094-0.321-0.094-0.544
		c0-0.151,0.025-0.301,0.078-0.446c0.051-0.145,0.132-0.275,0.239-0.387c0.107-0.112,0.244-0.203,0.407-0.274
		c0.167-0.07,0.359-0.105,0.581-0.105c0.19,0,0.354,0.019,0.495,0.058c0.141,0.04,0.26,0.08,0.362,0.125
		c0.102,0.043,0.189,0.085,0.259,0.125c0.069,0.037,0.127,0.057,0.174,0.057c0.049,0,0.085-0.015,0.107-0.044l0.066,0.058
		l-0.371,0.914l-0.053-0.03c-0.008-0.068-0.022-0.125-0.043-0.168c-0.028-0.057-0.075-0.115-0.141-0.171
		c-0.066-0.056-0.145-0.106-0.234-0.15c-0.089-0.043-0.185-0.078-0.29-0.106c-0.103-0.027-0.207-0.04-0.311-0.04
		c-0.079,0-0.161,0.009-0.245,0.026c-0.084,0.016-0.16,0.042-0.227,0.076c-0.068,0.034-0.124,0.079-0.169,0.136
		c-0.045,0.056-0.067,0.125-0.067,0.208c0,0.116,0.031,0.204,0.094,0.263c0.063,0.058,0.144,0.101,0.247,0.13
		c0.102,0.031,0.218,0.049,0.35,0.058c0.13,0.011,0.262,0.023,0.399,0.038c0.137,0.014,0.27,0.038,0.4,0.076
		c0.13,0.037,0.246,0.094,0.349,0.174c0.102,0.08,0.184,0.19,0.247,0.326c0.063,0.135,0.094,0.314,0.094,0.532
		c0,0.253-0.05,0.459-0.148,0.619c-0.099,0.161-0.221,0.287-0.368,0.38c-0.147,0.092-0.306,0.154-0.476,0.186
		c-0.169,0.032-0.329,0.048-0.476,0.048c-0.204,0-0.373-0.016-0.513-0.048c-0.138-0.032-0.251-0.07-0.343-0.116
		c-0.091-0.045-0.164-0.087-0.217-0.125c-0.053-0.035-0.1-0.053-0.141-0.053c-0.025,0-0.048,0.019-0.071,0.058l-0.074-0.058
		L67.718,109.25z"/>
	<path fill="#FFFFFF" d="M68.103,106.5c-0.19,0.082-0.347,0.189-0.471,0.318c-0.126,0.132-0.221,0.285-0.28,0.455
		c-0.059,0.162-0.089,0.334-0.089,0.51c0,0.254,0.036,0.458,0.111,0.622c0.075,0.167,0.177,0.301,0.302,0.399
		c0.118,0.095,0.26,0.165,0.418,0.206c0.003,0.001,0.425,0.079,0.425,0.079c0.003,0.001,0.412,0.032,0.412,0.032l0.315,0.043
		c0.072,0.018,0.13,0.044,0.167,0.076c0.023,0.02,0.028,0.068,0.028,0.105c0,0.081-0.027,0.118-0.048,0.14
		c-0.049,0.048-0.11,0.089-0.179,0.117l-0.233,0.063c-0.002,0-0.214,0.017-0.214,0.017l-0.231-0.035
		c-0.001,0-0.264-0.093-0.264-0.093c-0.003-0.001-0.221-0.13-0.221-0.13c-0.063-0.05-0.08-0.083-0.084-0.092
		c-0.001-0.003-0.007-0.045-0.007-0.045l-0.012-0.083l-0.071-0.074l-0.261-0.175l-0.414,1.246l0.342,0.268
		c0,0,0.04-0.063,0.074-0.115c0.038,0.022,0.222,0.128,0.222,0.128c0.109,0.054,0.234,0.097,0.386,0.131
		c0.154,0.035,0.334,0.052,0.554,0.052c0.159,0,0.331-0.017,0.51-0.051c0.19-0.035,0.373-0.106,0.541-0.212
		c0.17-0.107,0.314-0.255,0.428-0.44c0.117-0.191,0.175-0.433,0.175-0.719c0-0.247-0.037-0.452-0.11-0.611
		c-0.077-0.164-0.178-0.297-0.301-0.394c-0.121-0.095-0.26-0.165-0.414-0.208l-0.431-0.081l-0.403-0.039
		c-0.004,0-0.313-0.05-0.313-0.05c-0.075-0.022-0.13-0.05-0.172-0.089c-0.026-0.025-0.032-0.081-0.032-0.123
		c0-0.051,0.015-0.076,0.025-0.089c0.029-0.036,0.063-0.063,0.105-0.084c0.001-0.001,0.179-0.06,0.179-0.06
		c0.002,0,0.209-0.022,0.209-0.022l0.262,0.033l0.255,0.093l0.195,0.125c0.043,0.037,0.076,0.075,0.093,0.11
		c0,0.002,0.025,0.106,0.025,0.106l0.019,0.081l0.077,0.063l0.24,0.133l0.501-1.234l-0.272-0.244c0,0-0.08,0.058-0.127,0.092
		c-0.006-0.002-0.084-0.033-0.084-0.033c0.003,0.001-0.276-0.134-0.276-0.134c0.003,0.001-0.382-0.132-0.382-0.132
		c-0.16-0.043-0.339-0.064-0.547-0.064C68.512,106.381,68.291,106.421,68.103,106.5 M69.361,109.951
		c0.112-0.048,0.213-0.115,0.301-0.199c0.105-0.109,0.158-0.247,0.158-0.407c0-0.168-0.053-0.3-0.159-0.391
		c-0.085-0.073-0.191-0.124-0.325-0.158c-0.002,0-0.383-0.053-0.383-0.053c-0.001,0-0.392-0.03-0.392-0.03
		c0.004,0-0.372-0.068-0.372-0.068c-0.106-0.027-0.197-0.073-0.277-0.137c-0.078-0.061-0.142-0.147-0.192-0.258
		c-0.051-0.113-0.078-0.27-0.078-0.466c0-0.131,0.022-0.26,0.067-0.381c0.043-0.121,0.109-0.228,0.198-0.321
		c0.089-0.092,0.205-0.17,0.346-0.231c0.139-0.058,0.31-0.089,0.505-0.089c0.174,0,0.32,0.017,0.445,0.051l0.336,0.116
		c0.004,0.001,0.24,0.115,0.24,0.115c0.064,0.035,0.12,0.055,0.173,0.067c-0.052,0.128-0.073,0.18-0.138,0.34
		c-0.028-0.032-0.045-0.068-0.08-0.099c-0.001-0.001-0.272-0.175-0.272-0.175c-0.001-0.001-0.326-0.119-0.326-0.119l-0.358-0.045
		l-0.283,0.03c0.001,0-0.273,0.092-0.273,0.092c-0.092,0.045-0.17,0.108-0.232,0.187c-0.071,0.089-0.108,0.198-0.108,0.324
		c0,0.169,0.051,0.304,0.152,0.4c0.089,0.081,0.194,0.138,0.324,0.175c0.001,0,0.391,0.064,0.391,0.064
		c-0.004,0,0.39,0.037,0.39,0.037c0.001,0,0.369,0.07,0.369,0.07c0.109,0.031,0.202,0.077,0.284,0.141
		c0.076,0.061,0.141,0.147,0.192,0.257c0.05,0.109,0.076,0.261,0.076,0.452c0,0.216-0.04,0.391-0.12,0.521
		c-0.084,0.136-0.185,0.241-0.307,0.318c-0.128,0.08-0.265,0.134-0.409,0.16c-0.158,0.03-0.306,0.045-0.442,0.045
		c-0.188,0-0.346-0.014-0.47-0.043c-0.12-0.027-0.221-0.061-0.301-0.1l-0.192-0.11c-0.002-0.001-0.076-0.027-0.143-0.051
		c0.037-0.11,0.051-0.155,0.101-0.301c0.016,0.015,0.028,0.03,0.047,0.045c0.005,0.004,0.293,0.173,0.293,0.173
		c0.001,0,0.33,0.117,0.33,0.117l0.324,0.047l0.26-0.02C69.026,110.04,69.361,109.951,69.361,109.951 M68.114,109.897
		L68.114,109.897L68.114,109.897z"/>
	<path fill="#FFFFFF" d="M75.042,109.921c-0.011,0-0.021,0-0.03-0.003c-0.008-0.004-0.019-0.004-0.029-0.004
		c-0.021,0-0.074,0.028-0.153,0.088c-0.082,0.058-0.184,0.125-0.306,0.198c-0.125,0.074-0.265,0.138-0.422,0.192
		c-0.158,0.054-0.322,0.081-0.495,0.081c-0.226,0-0.442-0.039-0.65-0.118c-0.207-0.077-0.391-0.198-0.549-0.36
		c-0.159-0.164-0.285-0.367-0.377-0.61c-0.093-0.244-0.138-0.528-0.138-0.854c0-0.32,0.045-0.603,0.138-0.85
		c0.092-0.246,0.218-0.453,0.377-0.618c0.158-0.165,0.342-0.288,0.549-0.371c0.208-0.084,0.424-0.124,0.65-0.124
		c0.183,0,0.348,0.019,0.497,0.058c0.148,0.04,0.278,0.08,0.39,0.125c0.11,0.043,0.198,0.084,0.262,0.125
		c0.064,0.038,0.105,0.058,0.118,0.058c0.018,0,0.034-0.012,0.046-0.037c0.012-0.025,0.022-0.043,0.03-0.059l0.081,0.088
		l-0.418,0.884l-0.054-0.05c0-0.016-0.001-0.03-0.004-0.045c-0.001-0.014-0.004-0.032-0.008-0.051
		c-0.006-0.053-0.043-0.107-0.107-0.164c-0.064-0.056-0.144-0.106-0.239-0.149c-0.096-0.044-0.196-0.079-0.301-0.11
		c-0.105-0.029-0.203-0.043-0.293-0.043c-0.151,0-0.295,0.029-0.432,0.087c-0.138,0.058-0.258,0.142-0.359,0.254
		c-0.104,0.113-0.185,0.249-0.246,0.412c-0.061,0.163-0.092,0.347-0.092,0.557c0,0.208,0.03,0.395,0.092,0.557
		c0.061,0.163,0.142,0.3,0.246,0.41c0.101,0.112,0.221,0.198,0.359,0.255c0.137,0.058,0.281,0.087,0.432,0.087
		c0.115,0,0.234-0.019,0.36-0.054c0.125-0.038,0.239-0.083,0.344-0.139c0.104-0.056,0.19-0.12,0.26-0.189
		c0.071-0.071,0.104-0.138,0.104-0.202c0-0.033-0.007-0.064-0.02-0.088l0.074-0.058l0.355,0.775L75.042,109.921z"/>
	<path fill="#FFFFFF" d="M72.886,106.519c-0.234,0.093-0.44,0.234-0.616,0.416c-0.174,0.18-0.315,0.41-0.417,0.682
		c-0.099,0.264-0.151,0.572-0.151,0.916c0,0.353,0.049,0.655,0.151,0.921c0.102,0.267,0.243,0.495,0.419,0.675
		c0.177,0.182,0.384,0.318,0.619,0.405c0.226,0.086,0.467,0.13,0.715,0.13c0.192,0,0.378-0.03,0.555-0.091
		c0.166-0.057,0.319-0.127,0.457-0.208c0.001-0.001,0.32-0.208,0.32-0.208c0.004-0.003,0.055-0.037,0.076-0.05
		c0.011,0.002,0.138,0.019,0.138,0.019l0.041-0.092l0.109-0.148l-0.502-1.094l-0.378,0.296l0.063,0.143
		c0,0.005-0.005,0.028-0.049,0.072c-0.058,0.056-0.131,0.11-0.216,0.156l-0.309,0.125c-0.107,0.03-0.21,0.045-0.305,0.045
		c-0.124,0-0.244-0.025-0.358-0.072c-0.112-0.047-0.21-0.117-0.292-0.208c-0.088-0.094-0.158-0.211-0.208-0.35
		c-0.054-0.141-0.08-0.305-0.08-0.492c0-0.188,0.026-0.348,0.08-0.49c0.051-0.14,0.119-0.254,0.208-0.352
		c0.083-0.092,0.178-0.159,0.292-0.206c0.114-0.048,0.234-0.074,0.359-0.074l0.243,0.037l0.272,0.099
		c0.001,0.001,0.194,0.121,0.195,0.121c0,0.001,0.044,0.051,0.044,0.051c0.001,0.011,0.006,0.038,0.006,0.038
		c0.001,0.009,0.009,0.101,0.009,0.101l0.055,0.066l0.243,0.225l0.583-1.231l-0.353-0.384c0,0-0.057,0.113-0.093,0.186
		c-0.079-0.037-0.249-0.119-0.249-0.119c0.002,0-0.407-0.131-0.407-0.131c-0.166-0.043-0.349-0.064-0.547-0.064
		C73.356,106.381,73.113,106.427,72.886,106.519 M73.024,110.179c-0.182-0.068-0.343-0.174-0.481-0.314
		c-0.14-0.143-0.253-0.327-0.337-0.546c-0.085-0.222-0.126-0.48-0.126-0.786c0-0.298,0.043-0.562,0.126-0.783
		c0.084-0.223,0.197-0.409,0.337-0.553c0.138-0.144,0.3-0.254,0.484-0.327c0.185-0.074,0.374-0.11,0.58-0.11
		c0.167,0,0.318,0.018,0.45,0.051l0.367,0.118c0.001,0.001,0.232,0.11,0.232,0.11c0.003,0.001,0.048,0.019,0.095,0.038
		c-0.058,0.123-0.081,0.171-0.152,0.322c-0.012-0.012-0.019-0.025-0.032-0.037c-0.004-0.003-0.287-0.181-0.287-0.181
		c0.001,0-0.327-0.119-0.327-0.119c-0.004-0.001-0.347-0.051-0.347-0.051c-0.177,0-0.346,0.035-0.506,0.102
		c-0.162,0.067-0.306,0.169-0.425,0.301c-0.12,0.132-0.216,0.292-0.283,0.474c-0.07,0.185-0.103,0.389-0.103,0.623
		c0,0.232,0.035,0.443,0.105,0.624c0.067,0.184,0.164,0.343,0.284,0.472c0.117,0.13,0.261,0.233,0.424,0.301
		c0.16,0.067,0.33,0.102,0.505,0.102c0.129,0,0.267-0.02,0.411-0.061c0.003-0.001,0.383-0.155,0.383-0.155
		c0.117-0.063,0.218-0.138,0.303-0.221c0.01-0.011,0.014-0.022,0.024-0.032c0.054,0.118,0.072,0.157,0.109,0.237
		c-0.035,0.019-0.07,0.037-0.121,0.077c0.004-0.004-0.289,0.186-0.289,0.186c-0.115,0.067-0.245,0.127-0.387,0.175
		c-0.137,0.047-0.283,0.071-0.433,0.071C73.402,110.285,73.211,110.25,73.024,110.179 M74.983,110.104
		c0-0.001-0.049-0.013-0.049-0.013c0.009,0.004,0.034,0.009,0.057,0.012C74.988,110.103,74.983,110.104,74.983,110.104
		L74.983,110.104z M74.742,107.69L74.742,107.69L74.742,107.69z"/>
	<path fill="#FFFFFF" d="M79.402,106.871c0-0.088-0.04-0.131-0.118-0.131v-0.132h0.832v0.132c-0.025,0-0.048,0.012-0.068,0.032
		c-0.019,0.022-0.029,0.056-0.029,0.099v3.315c0,0.043,0.01,0.076,0.029,0.098c0.019,0.022,0.043,0.032,0.068,0.032v0.132h-0.832
		v-0.132c0.078,0,0.118-0.043,0.118-0.13v-1.375h-1.726v1.375c0,0.043,0.01,0.076,0.031,0.099c0.019,0.022,0.042,0.032,0.067,0.032
		v0.132h-0.817v-0.132c0.068,0,0.102-0.043,0.102-0.13v-3.315c0-0.088-0.035-0.131-0.102-0.131v-0.132h0.817v0.132
		c-0.026,0-0.048,0.012-0.067,0.032c-0.02,0.022-0.031,0.056-0.031,0.099v1.243h1.726V106.871z"/>
	<path fill="#FFFFFF" d="M80.116,106.419h-1.021v0.501c0,0,0.063,0.003,0.118,0.005v0.999h-1.347v-1.032
		c0.009-0.004,0.027-0.012,0.027-0.012l0.071-0.141v-0.321h-1.195v0.51h0.102c0,0.13,0.001,3.085,0.001,3.197h-0.102v0.51h1.195
		v-0.445c0,0-0.049-0.017-0.098-0.034v-1.157h1.347v1.13c-0.053,0.002-0.11,0.004-0.11,0.004l-0.009,0.182v0.321h1.21v-0.445
		l-0.096-0.032c0-0.064,0-3.223,0-3.265c0.009-0.004,0.027-0.011,0.027-0.011l0.069-0.142v-0.321
		C80.306,106.419,80.116,106.419,80.116,106.419z M79.855,106.798c-0.013,0.039-0.025,0.074-0.025,0.074v3.315
		c0,0,0.013,0.04,0.025,0.073h-0.276c0.004-0.024,0.013-0.046,0.013-0.074v-1.564h-2.104v1.564c0,0,0.014,0.042,0.026,0.074h-0.277
		c0.004-0.024,0.013-0.045,0.013-0.073v-3.315c0-0.028-0.009-0.049-0.013-0.074h0.277c-0.014,0.039-0.027,0.074-0.027,0.074v1.432
		h2.104v-1.432c0-0.027-0.008-0.049-0.013-0.074H79.855z M77.567,110.41L77.567,110.41L77.567,110.41L77.567,110.41z
		 M77.845,106.901l-0.001,0.002c0.003-0.003-0.07,0.026-0.07,0.026S77.811,106.915,77.845,106.901"/>
	<path fill="#FFFFFF" d="M84.29,106.69c0.203,0.079,0.39,0.2,0.558,0.36c0.167,0.16,0.304,0.364,0.412,0.609
		c0.107,0.247,0.161,0.536,0.161,0.872c0,0.337-0.054,0.626-0.161,0.872c-0.107,0.246-0.244,0.448-0.412,0.61
		c-0.168,0.16-0.355,0.277-0.558,0.349c-0.204,0.074-0.404,0.11-0.6,0.11c-0.197,0-0.396-0.036-0.6-0.11
		c-0.204-0.072-0.389-0.189-0.558-0.349c-0.167-0.162-0.304-0.364-0.411-0.61c-0.107-0.247-0.161-0.536-0.161-0.872
		s0.054-0.626,0.161-0.872c0.107-0.244,0.244-0.449,0.411-0.609c0.169-0.161,0.354-0.281,0.558-0.36c0.204-0.08,0.404-0.12,0.6-0.12
		C83.887,106.57,84.086,106.61,84.29,106.69 M83.281,107.325c-0.135,0.059-0.257,0.143-0.366,0.251
		c-0.109,0.11-0.197,0.245-0.265,0.406c-0.068,0.161-0.103,0.342-0.103,0.546s0.035,0.386,0.103,0.548
		c0.068,0.16,0.156,0.295,0.265,0.404c0.109,0.109,0.231,0.194,0.366,0.252c0.138,0.058,0.274,0.087,0.409,0.087
		c0.136,0,0.272-0.03,0.407-0.087c0.136-0.058,0.258-0.143,0.367-0.252c0.11-0.109,0.199-0.244,0.267-0.404
		c0.067-0.161,0.101-0.343,0.101-0.548c0-0.205-0.034-0.386-0.101-0.546c-0.068-0.161-0.157-0.295-0.267-0.406
		c-0.109-0.108-0.231-0.192-0.367-0.251c-0.136-0.058-0.272-0.087-0.407-0.087C83.555,107.238,83.419,107.266,83.281,107.325"/>
	<path fill="#FFFFFF" d="M83.021,106.514c-0.223,0.087-0.431,0.222-0.619,0.4c-0.184,0.177-0.337,0.402-0.453,0.67
		c-0.118,0.27-0.177,0.588-0.177,0.948c0,0.359,0.059,0.678,0.177,0.948c0.115,0.264,0.267,0.489,0.452,0.67
		c0.192,0.181,0.402,0.313,0.627,0.392c0.22,0.08,0.444,0.121,0.663,0.121c0.219,0,0.443-0.041,0.665-0.122
		c0.226-0.08,0.436-0.212,0.624-0.39c0.186-0.18,0.339-0.406,0.455-0.671c0.118-0.269,0.177-0.588,0.177-0.948
		s-0.06-0.68-0.177-0.949c-0.118-0.269-0.27-0.495-0.455-0.67c-0.184-0.177-0.393-0.311-0.619-0.4
		c-0.225-0.088-0.451-0.133-0.669-0.133C83.472,106.381,83.246,106.426,83.021,106.514 M83.154,110.186
		c-0.179-0.063-0.34-0.164-0.492-0.309c-0.148-0.144-0.272-0.33-0.368-0.549c-0.097-0.221-0.146-0.489-0.146-0.797
		c0-0.308,0.048-0.575,0.146-0.797c0.097-0.222,0.221-0.407,0.368-0.549c0.154-0.146,0.316-0.251,0.496-0.321
		c0.182-0.071,0.36-0.107,0.532-0.107c0.171,0,0.35,0.036,0.531,0.107c0.18,0.071,0.347,0.179,0.496,0.321
		c0.148,0.141,0.272,0.325,0.369,0.549c0.097,0.221,0.146,0.489,0.146,0.797c0,0.308-0.049,0.576-0.146,0.797
		c-0.096,0.22-0.221,0.405-0.37,0.55c-0.147,0.141-0.311,0.244-0.489,0.306c-0.182,0.066-0.362,0.099-0.537,0.099
		C83.515,110.285,83.335,110.251,83.154,110.186"/>
	<path fill="#FFFFFF" d="M83.208,107.15l-0.002,0.001c-0.155,0.068-0.297,0.166-0.423,0.29c-0.128,0.13-0.231,0.287-0.306,0.466
		c-0.078,0.184-0.118,0.392-0.118,0.62c0,0.228,0.04,0.436,0.118,0.621c0.076,0.182,0.179,0.337,0.304,0.464
		c0.13,0.128,0.272,0.226,0.427,0.292c0.162,0.068,0.324,0.102,0.484,0.102c0.16,0,0.322-0.035,0.482-0.102
		c0.156-0.066,0.299-0.164,0.427-0.292c0.125-0.125,0.229-0.281,0.306-0.464c0.077-0.186,0.116-0.394,0.116-0.622
		s-0.039-0.436-0.116-0.62c-0.077-0.182-0.18-0.338-0.306-0.465c-0.127-0.125-0.269-0.223-0.425-0.291
		c-0.159-0.068-0.322-0.102-0.484-0.102C83.529,107.049,83.367,107.083,83.208,107.15 M83.69,107.426
		c0.11,0,0.223,0.024,0.333,0.072c0.112,0.049,0.216,0.12,0.308,0.211c0.093,0.093,0.167,0.207,0.226,0.345
		c0.058,0.136,0.087,0.296,0.087,0.473s-0.029,0.337-0.087,0.474c-0.058,0.136-0.134,0.253-0.225,0.344
		c-0.093,0.093-0.197,0.164-0.308,0.211c-0.112,0.048-0.225,0.072-0.334,0.072c-0.11,0-0.22-0.024-0.336-0.073
		c-0.109-0.046-0.212-0.118-0.306-0.211c-0.09-0.091-0.166-0.207-0.224-0.344c-0.058-0.138-0.088-0.298-0.088-0.474
		s0.03-0.335,0.088-0.472c0.058-0.138,0.132-0.252,0.226-0.347c0.091-0.089,0.195-0.16,0.307-0.209
		C83.47,107.45,83.579,107.426,83.69,107.426"/>
	<path fill="#FFFFFF" d="M89.44,106.69c0.202,0.079,0.388,0.2,0.557,0.36c0.167,0.16,0.305,0.364,0.412,0.609
		c0.107,0.247,0.161,0.536,0.161,0.872c0,0.337-0.054,0.626-0.161,0.872c-0.107,0.246-0.245,0.448-0.412,0.61
		c-0.169,0.16-0.355,0.277-0.557,0.349c-0.205,0.074-0.405,0.11-0.6,0.11c-0.198,0-0.397-0.036-0.6-0.11
		c-0.203-0.072-0.389-0.189-0.556-0.349c-0.169-0.162-0.305-0.364-0.412-0.61c-0.107-0.247-0.16-0.536-0.16-0.872
		s0.053-0.626,0.16-0.872c0.107-0.244,0.243-0.449,0.412-0.609c0.167-0.161,0.353-0.281,0.556-0.36c0.203-0.08,0.403-0.12,0.6-0.12
		C89.035,106.57,89.235,106.61,89.44,106.69 M88.433,107.325c-0.136,0.059-0.259,0.143-0.369,0.251
		c-0.11,0.11-0.198,0.245-0.264,0.406c-0.068,0.161-0.103,0.342-0.103,0.546s0.035,0.386,0.103,0.548
		c0.066,0.16,0.154,0.295,0.264,0.404c0.11,0.109,0.233,0.194,0.369,0.252c0.136,0.058,0.272,0.087,0.407,0.087
		c0.136,0,0.271-0.03,0.407-0.087c0.136-0.058,0.26-0.143,0.367-0.252c0.109-0.109,0.197-0.244,0.266-0.404
		c0.068-0.161,0.102-0.343,0.102-0.548c0-0.205-0.034-0.386-0.102-0.546c-0.069-0.161-0.157-0.295-0.266-0.406
		c-0.108-0.108-0.231-0.192-0.367-0.251c-0.136-0.058-0.272-0.087-0.407-0.087C88.704,107.238,88.567,107.266,88.433,107.325"/>
	<path fill="#FFFFFF" d="M88.169,106.514c-0.224,0.088-0.433,0.223-0.618,0.4c-0.182,0.172-0.335,0.398-0.454,0.67
		c-0.117,0.267-0.176,0.586-0.176,0.948c0,0.367,0.058,0.677,0.176,0.948c0.119,0.272,0.267,0.492,0.455,0.671
		c0.187,0.179,0.397,0.311,0.624,0.391c0.22,0.08,0.444,0.121,0.664,0.121c0.218,0,0.442-0.041,0.665-0.122
		c0.223-0.079,0.433-0.211,0.623-0.389c0.187-0.182,0.34-0.407,0.455-0.672c0.118-0.27,0.177-0.588,0.177-0.948
		c0-0.359-0.059-0.678-0.177-0.947c-0.118-0.269-0.27-0.494-0.455-0.67c-0.188-0.178-0.396-0.312-0.619-0.4h-0.001
		c-0.226-0.088-0.452-0.133-0.669-0.133C88.62,106.381,88.394,106.426,88.169,106.514 M88.304,110.186
		c-0.177-0.063-0.342-0.167-0.491-0.308c-0.151-0.144-0.271-0.324-0.369-0.549c-0.097-0.222-0.145-0.483-0.145-0.797
		c0-0.309,0.049-0.577,0.145-0.797c0.099-0.225,0.222-0.409,0.368-0.547c0.151-0.144,0.317-0.252,0.495-0.322
		c0.184-0.072,0.358-0.107,0.532-0.107c0.17,0,0.349,0.036,0.531,0.107c0.177,0.07,0.344,0.178,0.496,0.322
		c0.147,0.141,0.272,0.325,0.369,0.547c0.096,0.221,0.144,0.489,0.144,0.797c0,0.308-0.048,0.575-0.145,0.797
		c-0.095,0.218-0.22,0.404-0.371,0.55c-0.149,0.141-0.314,0.244-0.488,0.306c-0.183,0.066-0.363,0.099-0.537,0.099
		C88.661,110.285,88.486,110.253,88.304,110.186"/>
	<path fill="#FFFFFF" d="M88.358,107.151L88.358,107.151c-0.157,0.068-0.301,0.166-0.427,0.29c-0.129,0.13-0.231,0.288-0.306,0.468
		c-0.078,0.181-0.118,0.39-0.118,0.619c0,0.229,0.04,0.438,0.118,0.622c0.075,0.181,0.178,0.337,0.304,0.464
		c0.129,0.128,0.273,0.226,0.43,0.292c0.159,0.068,0.321,0.102,0.481,0.102s0.322-0.035,0.481-0.102
		c0.156-0.066,0.3-0.164,0.427-0.292c0.124-0.124,0.226-0.279,0.306-0.463c0.079-0.185,0.118-0.394,0.118-0.623
		c0-0.229-0.04-0.438-0.118-0.621c-0.08-0.185-0.179-0.337-0.305-0.464c-0.126-0.125-0.269-0.223-0.427-0.292
		s-0.32-0.102-0.482-0.102C88.677,107.049,88.515,107.083,88.358,107.151 M88.839,107.426c0.11,0,0.222,0.024,0.332,0.071
		c0.114,0.049,0.218,0.12,0.309,0.211c0.091,0.092,0.165,0.206,0.226,0.347c0.058,0.135,0.087,0.294,0.087,0.471
		c0,0.18-0.028,0.336-0.087,0.474c-0.061,0.14-0.135,0.253-0.226,0.345c-0.093,0.093-0.195,0.164-0.307,0.21
		c-0.112,0.048-0.225,0.073-0.333,0.073c-0.109,0-0.221-0.025-0.333-0.072s-0.216-0.118-0.31-0.212
		c-0.091-0.091-0.166-0.206-0.223-0.342c-0.059-0.138-0.089-0.298-0.089-0.475c0-0.177,0.03-0.336,0.088-0.471
		c0.058-0.139,0.13-0.252,0.225-0.347c0.091-0.089,0.195-0.161,0.31-0.21C88.618,107.451,88.73,107.426,88.839,107.426"/>
	<path fill="#FFFFFF" d="M94.936,110.463c-0.034-0.01-0.077-0.016-0.133-0.016h-2.56v-0.132c0.107,0,0.161-0.043,0.161-0.13v-3.315
		c0-0.088-0.055-0.131-0.161-0.131v-0.131h0.929v0.131c-0.102,0-0.151,0.043-0.151,0.131v2.909h1.781
		c0.056,0,0.099-0.017,0.133-0.052c0.034-0.033,0.051-0.079,0.051-0.137h0.097v1.001h-0.097
		C94.986,110.516,94.969,110.472,94.936,110.463"/>
	<path fill="#FFFFFF" d="M93.172,106.419h-1.118v0.496c0,0,0.121,0.009,0.161,0.012v3.201c-0.05,0.004-0.125,0.01-0.125,0.01
		l-0.036,0.177v0.321H94.8c0.003,0.05,0.008,0.132,0.008,0.132l0.178,0.012h0.287v-1.379h-0.46l-0.017,0.201
		c0,0-1.284-0.009-1.586-0.012v-2.665c0.052-0.003,0.123-0.008,0.123-0.008l0.027-0.179v-0.321h-0.189V106.419z M92.845,106.798
		c-0.004,0.025-0.013,0.047-0.013,0.074v3.097h1.971c0.037,0,0.062-0.012,0.092-0.019v0.321c-0.046-0.006-0.092-0.012-0.092-0.012
		h-2.22c0.005-0.025,0.012-0.049,0.012-0.073v-3.314c0-0.025-0.006-0.049-0.012-0.074H92.845z M94.983,110.28
		c0.003,0.001,0.007,0.001,0.007,0.001h-0.004C94.986,110.282,94.985,110.28,94.983,110.28"/>
	<path fill="#FFFFFF" d="M96.828,109.25l0.053,0.037c0,0.045,0.008,0.084,0.022,0.118c0.025,0.058,0.075,0.115,0.148,0.172
		c0.074,0.056,0.158,0.106,0.251,0.148c0.095,0.045,0.195,0.08,0.298,0.105c0.103,0.027,0.195,0.041,0.278,0.041
		c0.061,0,0.14-0.006,0.236-0.019c0.097-0.012,0.191-0.037,0.284-0.076c0.092-0.039,0.172-0.093,0.241-0.16
		c0.067-0.069,0.101-0.159,0.101-0.271c0-0.112-0.03-0.195-0.094-0.249c-0.062-0.053-0.144-0.092-0.247-0.117
		c-0.102-0.025-0.218-0.04-0.35-0.048c-0.13-0.007-0.263-0.017-0.4-0.031c-0.135-0.016-0.268-0.041-0.399-0.074
		c-0.13-0.035-0.247-0.091-0.349-0.173c-0.102-0.079-0.183-0.189-0.247-0.328c-0.063-0.138-0.094-0.321-0.094-0.544
		c0-0.151,0.026-0.301,0.078-0.446c0.05-0.145,0.131-0.275,0.239-0.387c0.107-0.112,0.244-0.203,0.409-0.274
		c0.165-0.07,0.358-0.105,0.58-0.105c0.19,0,0.354,0.019,0.494,0.058c0.141,0.04,0.261,0.08,0.363,0.125
		c0.102,0.043,0.188,0.085,0.258,0.125c0.071,0.037,0.128,0.057,0.174,0.057c0.051,0,0.087-0.015,0.108-0.044l0.065,0.058
		l-0.371,0.914l-0.053-0.03c-0.006-0.068-0.019-0.125-0.042-0.168c-0.028-0.057-0.076-0.115-0.143-0.171
		c-0.066-0.056-0.144-0.106-0.234-0.15c-0.088-0.043-0.184-0.078-0.289-0.106c-0.102-0.027-0.206-0.04-0.311-0.04
		c-0.079,0-0.159,0.009-0.244,0.026c-0.084,0.016-0.16,0.042-0.229,0.076c-0.067,0.034-0.123,0.079-0.168,0.136
		c-0.045,0.056-0.068,0.125-0.068,0.208c0,0.116,0.032,0.204,0.094,0.263c0.062,0.058,0.144,0.101,0.246,0.13
		c0.102,0.031,0.22,0.049,0.35,0.058c0.129,0.011,0.264,0.023,0.399,0.038c0.137,0.014,0.27,0.038,0.401,0.076
		c0.13,0.037,0.247,0.094,0.348,0.174c0.102,0.08,0.185,0.19,0.247,0.326c0.063,0.135,0.094,0.314,0.094,0.532
		c0,0.253-0.049,0.459-0.147,0.619c-0.1,0.161-0.221,0.287-0.369,0.38c-0.146,0.092-0.304,0.154-0.475,0.186
		c-0.169,0.032-0.329,0.048-0.476,0.048c-0.203,0-0.375-0.016-0.512-0.048c-0.138-0.032-0.252-0.07-0.344-0.116
		c-0.092-0.045-0.164-0.087-0.218-0.125c-0.055-0.035-0.1-0.053-0.141-0.053c-0.025,0-0.048,0.019-0.068,0.058l-0.077-0.058
		L96.828,109.25z"/>
	<path fill="#FFFFFF" d="M97.214,106.5c-0.189,0.082-0.347,0.189-0.471,0.318c-0.128,0.133-0.223,0.286-0.282,0.456
		c-0.058,0.163-0.089,0.334-0.089,0.508c0,0.249,0.037,0.458,0.111,0.621c0.076,0.169,0.179,0.303,0.303,0.4
		c0.118,0.094,0.258,0.164,0.416,0.206c0.004,0.001,0.425,0.079,0.425,0.079c0.004,0.001,0.412,0.032,0.412,0.032l0.315,0.043
		c0.073,0.018,0.13,0.044,0.167,0.076c0.023,0.02,0.028,0.068,0.028,0.106c0,0.081-0.027,0.118-0.048,0.138
		c-0.05,0.049-0.112,0.089-0.179,0.119l-0.232,0.063c-0.002,0-0.214,0.017-0.214,0.017l-0.231-0.035
		c-0.001,0-0.266-0.093-0.266-0.093c-0.001,0-0.218-0.128-0.218-0.128c-0.06-0.047-0.08-0.08-0.087-0.096
		c0-0.003-0.007-0.043-0.007-0.043l-0.012-0.077l-0.068-0.077l-0.26-0.18l-0.42,1.251l0.352,0.264c0,0,0.036-0.058,0.07-0.112
		c0.038,0.022,0.221,0.126,0.221,0.126c0.105,0.053,0.235,0.097,0.386,0.131c0.148,0.035,0.335,0.052,0.554,0.052
		c0.159,0,0.33-0.017,0.51-0.051c0.191-0.035,0.373-0.106,0.541-0.212c0.171-0.107,0.311-0.251,0.429-0.439
		c0.116-0.192,0.175-0.433,0.175-0.719c0-0.247-0.038-0.452-0.112-0.612c-0.074-0.163-0.176-0.296-0.301-0.395
		c-0.118-0.094-0.257-0.164-0.414-0.208l-0.433-0.081l-0.396-0.038c-0.011-0.001-0.318-0.051-0.318-0.051
		c-0.075-0.022-0.132-0.05-0.17-0.087c-0.023-0.022-0.035-0.064-0.035-0.125c0-0.051,0.013-0.074,0.025-0.088
		c0.03-0.038,0.064-0.065,0.106-0.087l0.179-0.058c0.003-0.001,0.208-0.022,0.208-0.022l0.262,0.032l0.254,0.093l0.197,0.125
		c0.056,0.047,0.082,0.086,0.094,0.11l0.042,0.186l0.077,0.063l0.241,0.133l0.501-1.234l-0.273-0.247c0,0-0.076,0.058-0.125,0.094
		c-0.008-0.003-0.086-0.034-0.086-0.034c0.005,0.003-0.274-0.133-0.274-0.133c0.002,0.001-0.383-0.133-0.383-0.133
		c-0.159-0.043-0.337-0.064-0.546-0.064C97.621,106.381,97.401,106.421,97.214,106.5 M97.669,108.712l-0.373-0.068
		c-0.105-0.027-0.195-0.073-0.275-0.137c-0.079-0.061-0.141-0.146-0.192-0.259c-0.051-0.114-0.078-0.27-0.078-0.466
		c0-0.13,0.022-0.259,0.067-0.382c0.042-0.12,0.108-0.227,0.198-0.32s0.206-0.171,0.347-0.232c0.138-0.058,0.309-0.089,0.505-0.089
		c0.173,0,0.322,0.017,0.443,0.051l0.337,0.116c0.003,0.001,0.24,0.115,0.24,0.115c0.066,0.035,0.12,0.055,0.172,0.067
		c-0.052,0.128-0.073,0.179-0.138,0.338c-0.029-0.032-0.044-0.067-0.081-0.098c-0.001-0.001-0.272-0.175-0.272-0.175l-0.324-0.119
		l-0.358-0.045l-0.282,0.03l-0.275,0.092c-0.092,0.045-0.17,0.109-0.232,0.188c-0.071,0.087-0.108,0.197-0.108,0.324
		c0,0.169,0.051,0.304,0.153,0.4c0.083,0.078,0.192,0.137,0.324,0.175l0.389,0.064c0.002,0,0.39,0.037,0.39,0.037
		c0.001,0,0.371,0.07,0.371,0.07c0.109,0.031,0.201,0.077,0.282,0.141c0.079,0.062,0.143,0.148,0.192,0.257
		c0.051,0.11,0.077,0.262,0.077,0.453c0,0.216-0.04,0.391-0.119,0.522c-0.085,0.136-0.186,0.241-0.308,0.317
		c-0.127,0.08-0.265,0.134-0.409,0.16c-0.158,0.03-0.306,0.045-0.441,0.045c-0.189,0-0.347-0.014-0.469-0.043
		c-0.123-0.028-0.223-0.061-0.301-0.101c-0.001,0-0.193-0.11-0.193-0.11c-0.004-0.003-0.077-0.028-0.143-0.051
		c0.038-0.114,0.054-0.161,0.104-0.311c0.019,0.017,0.024,0.038,0.046,0.056c0.002,0.001,0.288,0.172,0.288,0.172l0.334,0.118
		c-0.002,0,0.324,0.047,0.324,0.047l0.26-0.02c-0.002,0,0.334-0.089,0.334-0.089c0.112-0.048,0.213-0.115,0.3-0.2
		c0.105-0.106,0.159-0.245,0.159-0.405c0-0.169-0.054-0.301-0.16-0.393c-0.084-0.071-0.19-0.123-0.324-0.157
		c-0.002-0.001-0.384-0.054-0.384-0.054C98.061,108.742,97.669,108.712,97.669,108.712"/>
	<path fill="#CC1719" d="M14.687,100.737c0.037,0,0.069-0.013,0.103-0.037c0.026-0.026,0.04-0.074,0.04-0.151v-2.24
		c-0.027,0-0.056,0.002-0.094,0.006c-0.036,0.005-0.072,0.014-0.104,0.025c-0.032,0.009-0.067,0.026-0.094,0.048
		c-0.027,0.019-0.05,0.045-0.058,0.081h-0.069v-0.844h0.069c0,0.041,0.016,0.066,0.051,0.083c0.035,0.017,0.065,0.023,0.093,0.023
		c0.066,0,0.121-0.023,0.164-0.069c0.042-0.05,0.065-0.105,0.065-0.172c0-0.063-0.014-0.101-0.037-0.119
		c-0.026-0.018-0.06-0.031-0.101-0.04v-0.084h0.927v0.084c-0.045,0.009-0.086,0.025-0.11,0.045
		c-0.032,0.022-0.051,0.056-0.051,0.099v3.073c0,0.077,0.018,0.125,0.051,0.151c0.025,0.025,0.062,0.037,0.1,0.037v0.079h-0.946
		v-0.079H14.687z"/>
	<path fill="#CC1719" d="M17.534,99.775l0.067,0.04c0,0.019,0.006,0.049,0.009,0.079c0.005,0.032,0.019,0.059,0.032,0.082
		c0.041,0.059,0.089,0.109,0.157,0.15c0.064,0.043,0.131,0.08,0.208,0.105c0.075,0.026,0.149,0.045,0.226,0.058
		c0.076,0.01,0.144,0.014,0.208,0.014c0.595,0,0.914-0.35,0.949-1.048c-0.161,0.095-0.318,0.172-0.479,0.241
		c-0.159,0.068-0.327,0.105-0.502,0.105c-0.139,0-0.279-0.021-0.422-0.063c-0.147-0.035-0.278-0.1-0.392-0.186
		c-0.119-0.086-0.213-0.195-0.288-0.327c-0.075-0.136-0.112-0.294-0.112-0.485c0-0.23,0.043-0.422,0.128-0.58
		c0.086-0.164,0.197-0.295,0.339-0.406c0.134-0.104,0.288-0.181,0.46-0.228c0.169-0.053,0.339-0.076,0.502-0.076
		c0.212,0,0.402,0.042,0.578,0.123c0.172,0.087,0.321,0.199,0.448,0.353c0.127,0.146,0.222,0.327,0.292,0.533
		c0.07,0.202,0.105,0.43,0.105,0.673c0,0.291-0.04,0.553-0.12,0.789c-0.078,0.234-0.188,0.435-0.337,0.603
		c-0.143,0.167-0.317,0.292-0.517,0.382c-0.201,0.085-0.425,0.128-0.674,0.128c-0.17,0-0.316-0.014-0.435-0.043
		c-0.123-0.027-0.221-0.063-0.301-0.107c-0.082-0.043-0.145-0.079-0.195-0.112c-0.05-0.035-0.092-0.053-0.123-0.053
		c-0.038,0-0.075,0.016-0.106,0.045l-0.046-0.049L17.534,99.775z M18.308,97.86c-0.092,0.018-0.17,0.051-0.236,0.097
		c-0.071,0.049-0.123,0.112-0.164,0.19c-0.04,0.077-0.06,0.172-0.06,0.289c0,0.117,0.02,0.212,0.06,0.292
		c0.04,0.076,0.093,0.138,0.164,0.188c0.066,0.045,0.145,0.079,0.236,0.097c0.085,0.02,0.175,0.032,0.268,0.032
		c0.09,0,0.179-0.012,0.267-0.032c0.089-0.018,0.166-0.053,0.234-0.097c0.071-0.05,0.124-0.112,0.165-0.188
		c0.038-0.08,0.06-0.175,0.06-0.292c0-0.117-0.022-0.212-0.06-0.289c-0.041-0.078-0.094-0.141-0.165-0.19
		c-0.068-0.046-0.145-0.08-0.234-0.097c-0.087-0.02-0.177-0.031-0.267-0.031C18.484,97.829,18.394,97.84,18.308,97.86"/>
	<path fill="#CC1719" d="M21.033,99.775l0.07,0.04c0,0.019,0,0.049,0.006,0.079c0.009,0.032,0.017,0.059,0.03,0.082
		c0.04,0.059,0.092,0.109,0.154,0.15c0.067,0.043,0.137,0.08,0.212,0.105c0.075,0.026,0.147,0.045,0.224,0.058
		c0.075,0.01,0.146,0.014,0.205,0.014c0.597,0,0.915-0.35,0.952-1.048c-0.159,0.095-0.321,0.172-0.482,0.241
		c-0.157,0.068-0.324,0.105-0.501,0.105c-0.138,0-0.278-0.021-0.422-0.063c-0.143-0.035-0.275-0.1-0.391-0.186
		c-0.118-0.086-0.212-0.195-0.286-0.327c-0.075-0.136-0.112-0.294-0.112-0.485c0-0.23,0.043-0.422,0.128-0.58
		c0.085-0.164,0.197-0.295,0.334-0.406c0.138-0.104,0.291-0.181,0.461-0.228c0.173-0.053,0.338-0.076,0.508-0.076
		c0.21,0,0.402,0.042,0.574,0.123c0.175,0.087,0.325,0.199,0.449,0.353c0.127,0.146,0.227,0.327,0.293,0.533
		c0.068,0.202,0.102,0.43,0.102,0.673c0,0.291-0.038,0.553-0.121,0.789c-0.075,0.234-0.19,0.435-0.333,0.603
		c-0.143,0.167-0.317,0.292-0.518,0.382c-0.202,0.085-0.427,0.128-0.673,0.128c-0.174,0-0.317-0.014-0.439-0.043
		c-0.119-0.027-0.221-0.063-0.301-0.107c-0.08-0.043-0.142-0.079-0.193-0.112c-0.051-0.035-0.091-0.053-0.12-0.053
		c-0.042,0-0.079,0.016-0.11,0.045l-0.045-0.049L21.033,99.775z M21.804,97.86c-0.089,0.018-0.165,0.051-0.233,0.097
		c-0.071,0.049-0.125,0.112-0.164,0.19c-0.04,0.077-0.061,0.172-0.061,0.289c0,0.117,0.021,0.212,0.061,0.292
		c0.037,0.076,0.092,0.138,0.164,0.188c0.068,0.045,0.144,0.079,0.233,0.097c0.087,0.02,0.179,0.032,0.27,0.032
		c0.093,0,0.183-0.012,0.27-0.032c0.088-0.018,0.167-0.053,0.237-0.097c0.067-0.05,0.123-0.112,0.16-0.188
		c0.042-0.08,0.063-0.175,0.063-0.292c0-0.117-0.021-0.212-0.063-0.289c-0.037-0.078-0.093-0.141-0.16-0.19
		c-0.071-0.046-0.149-0.08-0.237-0.097c-0.087-0.02-0.177-0.031-0.27-0.031C21.983,97.829,21.89,97.84,21.804,97.86"/>
	<path fill="#CC1719" d="M27.012,100.903h-0.067c0-0.05-0.019-0.075-0.053-0.08c-0.037-0.005-0.076-0.007-0.118-0.007h-2.415
		c-0.039,0-0.076,0.002-0.103,0.009c-0.025,0.004-0.041,0.029-0.041,0.067H24.15v-0.241c0-0.234,0.05-0.439,0.154-0.606
		c0.099-0.171,0.229-0.321,0.381-0.45c0.149-0.13,0.316-0.243,0.49-0.343c0.177-0.097,0.34-0.195,0.491-0.291
		c0.154-0.097,0.28-0.197,0.384-0.297c0.098-0.104,0.15-0.222,0.15-0.363c0-0.094-0.018-0.17-0.056-0.231
		c-0.037-0.058-0.082-0.108-0.14-0.145c-0.058-0.037-0.119-0.063-0.186-0.077c-0.071-0.013-0.138-0.019-0.203-0.019
		c-0.064,0-0.144,0.012-0.239,0.039c-0.097,0.025-0.187,0.068-0.277,0.12c-0.087,0.055-0.162,0.118-0.227,0.191
		c-0.061,0.077-0.093,0.159-0.093,0.254c0,0.022,0.004,0.05,0.014,0.087c0.008,0.036,0.022,0.06,0.038,0.073l-0.058,0.048
		l-0.59-0.738l0.058-0.045c0.014,0.004,0.027,0.015,0.045,0.024c0.016,0.009,0.033,0.012,0.049,0.012
		c0.023,0,0.066-0.032,0.128-0.097c0.061-0.071,0.144-0.144,0.251-0.226c0.109-0.08,0.241-0.151,0.401-0.219
		c0.163-0.068,0.352-0.103,0.574-0.103c0.146,0,0.286,0.018,0.425,0.062c0.141,0.042,0.268,0.103,0.373,0.191
		c0.108,0.087,0.2,0.198,0.267,0.334c0.064,0.136,0.099,0.305,0.099,0.499c0,0.208-0.037,0.383-0.105,0.523
		c-0.065,0.14-0.16,0.259-0.272,0.353c-0.114,0.095-0.243,0.174-0.385,0.241c-0.141,0.067-0.283,0.135-0.43,0.2
		c-0.15,0.065-0.289,0.132-0.425,0.203c-0.137,0.071-0.254,0.163-0.358,0.272v0.068h1.892c0.042,0,0.081-0.009,0.118-0.026
		c0.034-0.018,0.053-0.071,0.053-0.16h0.067L27.012,100.903L27.012,100.903z"/>
	<g enable-background="new    ">
		<g>
			<g>
				<defs>
					<rect id="SVGID_1_" x="44.807" y="96.988" width="21.328" height="21.328"/>
				</defs>
				<clipPath id="SVGID_2_">
					<use xlink:href="#SVGID_1_"  overflow="visible"/>
				</clipPath>
				<path clip-path="url(#SVGID_2_)" fill="#FFFFFF" d="M66.135,107.653c0,5.89-4.774,10.664-10.664,10.664
					c-5.89,0-10.664-4.774-10.664-10.664c0-5.89,4.774-10.664,10.664-10.664C61.361,96.988,66.135,101.763,66.135,107.653"/>
			</g>
		</g>
	</g>
	<path fill="#CC1719" d="M44.618,107.653c0,5.985,4.868,10.853,10.853,10.853s10.853-4.868,10.853-10.853
		s-4.869-10.853-10.853-10.853C49.487,96.799,44.618,101.668,44.618,107.653 M44.997,107.653c0-5.776,4.699-10.475,10.474-10.475
		s10.475,4.699,10.475,10.475s-4.699,10.474-10.475,10.474S44.997,113.428,44.997,107.653"/>
	<path fill="#102D69" d="M63.625,106.671c-0.025-0.049-0.6,0.898-1.023,0.724c-1.398-0.749-0.923-3.345-0.125-3.669
		c-0.025,0,2.446,0.1,2.121,5.391c-0.798,6.241-4.517,6.566-4.517,6.566s-3.346-0.25-3.769-5.842
		c-0.025,0.026,0.15-0.349,0.15-0.349s0.923,4.642,3.045,4.792c3.595-0.673,4.268-6.04,4.268-6.04S64.024,107.145,63.625,106.671"/>
	<path fill="#102D69" d="M59.557,105.598c0,0-0.3,0.898-1.224,0.949c-0.974-0.799-0.674-1.923-0.574-2.322
		c0.773-1.348,1.972,0.151,1.972,0.151s3.22,5.94-0.599,9.51l-0.998-1.199c0,0,2.819-2.246,1.896-6.44
		C59.88,105.723,59.557,105.598,59.557,105.598"/>
	<path fill="#102D69" d="M55.936,107.245c0,0-0.425,0.74-0.973,0.507c-0.833-0.882-0.516-1.889-0.416-2.287
		c0.782-1.465,1.806,0.115,1.806,0.115s1.613,3.444-1.739,6.832l-0.98-1.036c0,0,2.359-1.835,2.502-3.932
		C56.169,107.062,55.936,107.245,55.936,107.245"/>
	<path fill="#102D69" d="M52.251,111.987c-0.948,0.683-3.977,0.482-4.676-1.912c-0.383-1.664,1.038-2.942,1.849-3.56
		c1.447-0.834,3.364-1.701,3.776-2.015c1.947-0.716,3.744-3.761,3.744-3.761l-0.149-0.084c0,0-1.498,2.181-2.48,2.813
		c-0.982,0.631-2.529,1.032-4.809,2.379c-2.512,1.099-3.045,4.609-1.98,6.39c2.38,2.945,5.458,1.182,5.458,1.182l-0.698-1.398
		L52.251,111.987z"/>
	<path fill="#102D69" d="M55.038,115.969c0,0-0.081,0.337-0.443,0.281c-0.724-0.119-0.954-0.737-0.954-0.737
		s-0.456-1.248-0.437-1.629c-0.074-0.093-0.081,0.012-0.081,0.012s0.106,1.735,0.792,2.589c0.711,0.655,1.161,0.431,1.161,0.431
		s0.255-0.156,0.237-0.3c-0.013-0.093-0.119-0.48-0.169-0.599C55.094,115.9,55.038,115.969,55.038,115.969"/>
	<path fill="#102D69" d="M57.434,116.522c0,0,0.574-0.04,0.557,0c-0.016,0.043,0-0.474,0-0.474s-0.391-0.033-0.499-0.009
		c-0.109,0.025-0.092,0.15-0.092,0.15L57.434,116.522z"/>
	<path fill="#102D69" d="M54.413,115.339c0,0,0.396-0.321,0.407-0.281c0.009,0.038-0.24-0.346-0.24-0.346s-0.301,0.174-0.368,0.247
		c-0.066,0.072,0.009,0.155,0.009,0.155L54.413,115.339z"/>
	<path fill="#102D69" d="M55.595,112.687c0,0,0.458-0.025,0.458,0.033c0,0.058,0.05-0.433,0.05-0.433s0.041-0.058-0.1-0.099
		c-0.141-0.043-0.308-0.008-0.358,0.009c-0.05,0.016-0.067,0.482-0.067,0.482"/>
	<path fill="#102D69" d="M60.897,112.67c0,0,0.487-0.025,0.487,0.034c0,0.058,0.054-0.433,0.054-0.433s0.044-0.059-0.107-0.1
		c-0.151-0.042-0.327-0.008-0.38,0.009c-0.053,0.017-0.071,0.482-0.071,0.482"/>
	<path fill="#102D69" d="M57.527,110.237c0,0,0.486-0.025,0.486,0.033c0,0.058,0.053-0.433,0.053-0.433s0.045-0.059-0.106-0.1
		c-0.151-0.042-0.327-0.008-0.381,0.009c-0.053,0.017-0.071,0.482-0.071,0.482"/>
	<path fill="#102D69" d="M59.023,107.563c0,0,0.482,0.064,0.471,0.12c-0.011,0.058,0.13-0.415,0.13-0.415s0.054-0.049-0.087-0.118
		c-0.141-0.068-0.321-0.068-0.376-0.061c-0.055,0.006-0.157,0.462-0.157,0.462"/>
	<path fill="#102D69" d="M60.223,104.096c0,0,0.447-0.057,0.451,0.001c0.004,0.058,0.018-0.435,0.018-0.435s0.037-0.061-0.105-0.093
		c-0.141-0.031-0.303,0.014-0.351,0.035c-0.047,0.019-0.03,0.486-0.03,0.486"/>
	<path fill="#102D69" d="M59.352,100.317c0,0,0.562,0.035,0.556,0.092c-0.006,0.057,0.106-0.419,0.106-0.419
		s0.058-0.051-0.112-0.111c-0.169-0.059-0.376-0.048-0.438-0.038c-0.063,0.009-0.132,0.465-0.132,0.465"/>
	<path fill="#102D69" d="M62.417,108.537c0,0,0.482,0.063,0.472,0.12s0.131-0.416,0.131-0.416s0.054-0.05-0.087-0.118
		c-0.141-0.068-0.321-0.067-0.376-0.061c-0.054,0.006-0.157,0.462-0.157,0.462"/>
	<path fill="#102D69" d="M52.6,116.481c0,0,0.389,0.122,0.371,0.173c-0.019,0.051,0.184-0.362,0.184-0.362s0.055-0.038-0.05-0.119
		c-0.104-0.081-0.253-0.105-0.301-0.106c-0.048-0.001-0.215,0.401-0.215,0.401"/>
	<path fill="#102D69" d="M49.627,114.932c0,0,0.435,0.114,0.417,0.167c-0.017,0.053,0.175-0.389,0.175-0.389
		s0.056-0.042-0.064-0.123c-0.119-0.08-0.284-0.099-0.335-0.098c-0.051,0.001-0.206,0.43-0.206,0.43"/>
	<path fill="#102D69" d="M46.42,109.861c0,0,0.34-0.176,0.363-0.125c0.022,0.051-0.128-0.396-0.128-0.396s0.009-0.066-0.115-0.055
		c-0.124,0.011-0.239,0.097-0.27,0.128c-0.032,0.032,0.136,0.447,0.136,0.447"/>
	<path fill="#102D69" d="M47.867,106.366c0,0,0.34-0.176,0.363-0.125c0.022,0.052-0.129-0.397-0.129-0.397s0.009-0.066-0.115-0.055
		c-0.123,0.012-0.238,0.097-0.27,0.128c-0.031,0.032,0.136,0.446,0.136,0.446"/>
	<path fill="#102D69" d="M47.076,104.177c0,0,0.435,0.134,0.416,0.187c-0.019,0.052,0.19-0.374,0.19-0.374s0.058-0.037-0.061-0.125
		c-0.118-0.085-0.285-0.112-0.337-0.114c-0.052-0.002-0.222,0.413-0.222,0.413"/>
	<path fill="#102D69" d="M50.895,104.125c0,0,0.366,0.081,0.471,0.263c0.095-0.192,0.161-0.412,0.161-0.412s0.037-0.115-0.104-0.216
		c-0.142-0.102-0.308-0.118-0.371-0.122c-0.062-0.002-0.183,0.454-0.183,0.454"/>
	<path fill="#102D69" d="M56.212,104.311c0,0,0.324,0.071,0.416,0.234c0.086-0.173,0.146-0.373,0.146-0.373s0.035-0.104-0.091-0.194
		c-0.125-0.091-0.272-0.105-0.327-0.107c-0.055-0.001-0.164,0.409-0.164,0.409"/>
	<path fill="#102D69" d="M56.19,98.94c0,0,0.272,0.118,0.313,0.289c0.118-0.153,0.221-0.334,0.221-0.334s0.055-0.094-0.034-0.199
		c-0.09-0.106-0.218-0.142-0.266-0.153c-0.048-0.011-0.247,0.366-0.247,0.366"/>
	<path fill="#102D69" d="M51.094,100.229c0,0,0.298,0.137,0.345,0.319c0.127-0.156,0.234-0.345,0.234-0.345s0.059-0.097-0.04-0.213
		s-0.239-0.159-0.291-0.174c-0.053-0.013-0.262,0.378-0.262,0.378"/>
	<path fill="#102D69" d="M62.772,103.346c0,0,0.315-0.039,0.447,0.096c0.025-0.206,0.021-0.428,0.021-0.428s0-0.118-0.141-0.167
		c-0.142-0.048-0.279-0.012-0.329,0.004c-0.05,0.017-0.027,0.472-0.027,0.472"/>
	<path fill="#102D69" d="M53.216,103.051c0,0,0.25-0.316-1.248-0.766c0.366-1.347,0.665-1.514,0.665-1.514s1.282,0.399,1.299,0.865
		C53.948,102.103,53.216,103.051,53.216,103.051"/>
	<path fill="#102D69" d="M46.577,105.332c0,0,2.87-1.531,3.261-2.346c0.095-0.158-0.017-0.133-0.017-0.133s-1.515-0.034-1.831,0.582
		c-0.133,0.083-0.099-0.067-0.099-0.067s0.632-1.115,0.931-1.398c0.516-0.349,1.764-0.332,1.764-0.332l0.316-0.1
		c0,0,0.067,0.035,0.067,0.117c0.005,0.181-1.082,2.163-2.164,2.995C47.791,105.231,46.577,105.332,46.577,105.332"/>
	<path fill="#102D69" d="M46.564,108.918c0.288-0.313,0.58-1.923,0.58-1.923s0.013-0.536-0.299-0.642
		c-0.568,0.068-0.518,0.743-0.474,0.823c0.012,0.032,0.056,0.025,0.056,0.025s0.218-0.143,0.288-0.106
		c0.181,0.043,0.174,0.243,0.174,0.343c0,0.174-0.387,1.472-0.387,1.472S46.489,108.943,46.564,108.918"/>
	<path fill="#102D69" d="M54.09,101.254c0.231-0.187,0.468-1.773,0.468-1.773s0.094-0.68-0.624-0.486
		c-0.562,0.28-0.63,1.011-0.63,1.085c0,0.075,0.074,0.099,0.074,0.099s0.275-0.53,0.549-0.536c0.412,0.025,0.305,0.518,0.305,0.518
		s-0.012,0.443-0.179,1.036C54.046,101.199,54.033,101.262,54.09,101.254"/>
	<path fill="#102D69" d="M58.589,103.221c0,0-0.125-0.224-1.235-0.525c-0.056-0.031-0.05-0.075-0.05-0.075s0.531-1.186,0.493-1.417
		c0.012-0.099-1.068-0.585-1.068-0.585s-0.106-0.119-0.118-0.194c0.212-0.311,0.586-1.291,0.681-1.336
		c0.049-0.031,0.087,0.007,0.087,0.007l0.05,0.043l0.98,0.549c0,0,0.399,0.268,0.27,0.674c0.012,0.163-0.35,0.899-0.35,0.899
		s0.599,0.243,0.724,0.306c0.374,0.143,0.231,0.524,0.231,0.524s-0.311,1.004-0.474,1.192c-0.03,0.038-0.099,0.119-0.137,0.106
		C58.633,103.377,58.589,103.221,58.589,103.221"/>
	<path fill="#102D69" d="M54.947,109.828c0.265-0.957,0.161-1.377,0.161-1.377s0-0.321-0.29-0.35
		c-0.283,0.05-0.496,0.358-0.562,0.603c-0.066,0.247-0.129,0.741-0.154,0.866c-0.412-1.015-0.66-1.112-0.66-1.112
		s-0.246-0.195-0.38,0.067c-0.058,0.241-0.066,0.171-0.079,0.45c0.009,0.045,0.041,0.141,0.104,0.133
		c0.063-0.009,0.092-0.116,0.167-0.204c0.52,0.192,0.836,1.29,0.836,1.29s0.025,0.055,0.067,0.05
		c0.041-0.004,0.037-0.054,0.037-0.054s0.025-0.786,0.125-1.07c0.017-0.037,0.178-0.549,0.478-0.503
		c0.238,0.058,0.221,0.358,0.221,0.358l-0.113,0.823C54.905,109.799,54.884,109.846,54.947,109.828"/>
	<path fill="#102D69" d="M58.391,110.748c0,0,0.453-0.82,0.507-1.656c0.055-0.835-0.495-0.92-0.495-0.92s-0.266,0.004-0.424,0.167
		c-0.158,0.162-0.084,0.657-0.084,0.657s0.045,0.115,0.12,0.066c0.275-0.183,0.366-0.12,0.366-0.12s0.349,0.104,0.304,0.528
		c0.032,0.158-0.379,1.264-0.379,1.264s-0.026,0.071,0.004,0.075C58.342,110.814,58.391,110.748,58.391,110.748"/>
	<path fill="#102D69" d="M62.632,109.561c0,0-0.087,0.399-0.361,0.43c-0.4,0.037-0.587-0.562-0.587-0.562s-0.244-1.172-0.099-1.71
		c0.006-0.068-0.006-0.061-0.037-0.131c-0.363,1.273,0.081,2.44,0.081,2.44s0.293,0.794,0.88,0.681
		c0.419-0.2,0.388-0.886,0.388-0.886s0.006-0.213-0.144-0.312C62.688,109.461,62.632,109.561,62.632,109.561"/>
	<path fill="#102D69" d="M60.156,100.464c-0.034,0.009-0.35,1.607,1.231,2.372c0.674,0.15,0.732-0.334,0.732-0.334
		s0.032-0.407-0.067-0.656c-0.083-0.184-0.141-0.035-0.141-0.035s-0.067,0.391-0.458,0.342c-0.949-0.125-1.231-1.455-1.231-1.455
		S60.238,100.473,60.156,100.464"/>
	<path fill="#102D69" d="M55.412,97.661c0.536,1.959-1.448,5.74-1.448,5.74s0.436-0.212,0.661-0.349
		c1.548-2.871,0.923-5.404,0.923-5.404S55.425,97.661,55.412,97.661"/>
	<path fill="#102D69" d="M50.57,109.28c0.096-0.112,0.129,0.029,0.129,0.029s0.138,0.624-0.195,0.899
		c-0.515,0.292-0.985-0.175-1.085-0.744c-0.1-0.571,0.124-1.394,0.307-1.982c0.183-0.587,0.52-0.141,0.52-0.141
		c0.125,0.083,0.449,0.748,0.449,0.748s0.15-1.451,0.295-1.606c0.396-0.74,0.869-0.245,0.833,0.121
		c-0.004,0.424-0.241,1.07-0.241,1.07l-0.03-0.008c0,0,0.204-0.736,0.112-0.874c-0.025-0.121-0.425-0.532-0.686,0.146
		c-0.105,0.212-0.171,1.664-0.25,1.752c-0.007,0-0.016,0.012-0.062-0.004c-0.391-0.886-0.719-0.994-0.719-0.994
		s-0.108-0.016-0.133,0.033c0.012,0.1-0.187,1.011-0.212,1.253C49.638,109.588,50.374,109.758,50.57,109.28"/>
	<path fill="#102D69" d="M56.848,113.286c-1.277,0.308-4.921-1.315-4.243-5.417c0.085-0.712,0.63-1.816,1.373-3.557
		c-0.187-0.225-0.574,0.312-0.773,0.399c-2.147,3.481-1.573,10.633,4.455,10.084C57.659,114.784,56.86,113.286,56.848,113.286"/>
	<path fill="#102D69" d="M51.847,116.285c0,0,0.046-0.624-0.166-0.803c-0.466-0.412-0.632,0.162-0.662,0.2
		c-0.03,0.036-0.087-0.038-0.087-0.038s-0.05-0.478,0.233-0.719c0.45-0.288,0.687,0.166,0.687,0.166s0.208,0.388,0.058,1.157
		C51.893,116.344,51.847,116.285,51.847,116.285"/>
	<path fill="#E20613" d="M87.473,101.095c-0.182,0-0.338-1.377-0.429-1.641c-0.148-0.462-0.363-0.882-0.619-1.303v-0.058
		c0-0.124,0.239-0.916,0.346-0.916c0.082,0,0.165,0.141,0.198,0.206c0.461,0.775,0.725,1.806,0.725,2.713
		C87.696,100.254,87.688,101.095,87.473,101.095"/>
	<path fill="#E20613" d="M91.233,101.062h-0.066c-0.388,0-1.419-0.247-1.419-0.75c0-0.347,0.412-0.808,0.611-1.072
		c-0.074-0.124-0.47-0.231-0.644-0.544V98.58c-0.025-0.536,0.783-1.493,1.336-1.484l-0.115,0.758
		c-0.173,0.033-0.355,0.082-0.495,0.198c-0.025,0.008-0.033,0.032-0.033,0.049c0,0.124,0.652,0.33,0.75,0.453
		c0.017,0.032,0.025,0.066,0.025,0.099c0,0.487-0.66,0.75-0.759,1.171c0.314,0.214,0.701,0.272,1.055,0.379
		c0.016,0.008,0.016,0.032,0.016,0.049C91.497,100.279,91.258,100.988,91.233,101.062"/>
	<path fill="#E20613" d="M94.564,101.095c-0.182,0-0.338-1.377-0.429-1.641c-0.149-0.462-0.363-0.882-0.619-1.303v-0.058
		c0-0.124,0.239-0.916,0.346-0.916c0.083,0,0.165,0.141,0.198,0.206c0.462,0.775,0.726,1.806,0.726,2.713
		C94.787,100.254,94.778,101.095,94.564,101.095"/>
	<path fill="#E20613" d="M98.497,98.729c-0.247,0-0.495-0.182-0.577-0.182c-0.041,0-0.099,0.091-0.123,0.115
		c-0.115,0.099-0.264,0.165-0.396,0.231c0.115,0.487,0.182,0.94,0.182,1.443c0,0.156-0.009,0.758-0.231,0.758
		c-0.247,0-0.255-0.799-0.272-0.981c-0.042-0.404-0.42-1.352-0.643-1.732c-0.033-0.058-0.223-0.322-0.223-0.363
		c0-0.066,0.371-0.626,0.437-0.66c0.148,0.148,0.552,0.626,0.75,0.626c0.314,0,0.561-0.758,0.734-0.758
		c0.033,0,0.058,0.009,0.091,0.025l0.041,0.083c0.033,0.239,0.025,0.453,0.363,0.453c0.223,0,0.19-0.445,0.412-0.445
		c0.107,0,0.14,0.181,0.14,0.255C99.181,97.987,98.967,98.729,98.497,98.729"/>
</g>
</svg>
